<?xml version="1.0" encoding="UTF-8" ?>
<!DOCTYPE svg PUBLIC "-//W3C//DTD SVG 1.1//EN" "http://www.w3.org/Graphics/SVG/1.1/DTD/svg11.dtd">
<svg width="800pt" height="600pt" viewBox="0 0 800 600" version="1.1" xmlns="http://www.w3.org/2000/svg">
<g id="#d6d6d6ff">
<path fill="#d6d6d6" opacity="1.00" d=" M 0.00 0.00 L 117.97 0.00 C 74.45 21.04 34.02 48.95 0.00 83.36 L 0.00 0.00 Z" />
<path fill="#d6d6d6" opacity="1.00" d=" M 557.95 0.00 L 706.39 0.00 C 746.43 35.75 779.59 79.73 800.00 129.55 L 800.00 371.34 C 799.50 371.96 798.51 373.22 798.02 373.85 C 798.09 374.28 798.24 375.15 798.31 375.58 C 783.34 409.11 763.16 440.30 738.39 467.42 C 685.64 525.46 615.52 566.06 540.95 589.12 C 527.58 593.34 513.96 596.68 500.34 600.00 L 281.46 600.00 C 227.84 587.75 176.20 565.71 131.60 533.32 C 97.04 508.33 66.59 477.27 43.97 441.02 C 22.60 406.79 8.70 367.89 3.70 327.84 C -1.21 288.54 3.04 248.01 16.82 210.83 C 27.61 181.48 44.25 154.41 64.83 130.92 C 86.45 106.21 112.30 85.35 140.44 68.49 C 183.11 42.95 230.96 26.38 280.06 18.77 C 322.73 12.16 366.50 12.40 409.01 20.12 C 453.96 28.22 497.61 44.89 535.42 70.70 C 568.78 93.41 597.81 123.13 617.35 158.60 C 637.77 195.95 647.72 239.46 642.78 281.92 C 642.54 283.21 642.21 284.47 641.93 285.75 C 635.78 288.45 630.71 293.58 628.79 300.09 C 626.09 308.74 626.32 319.07 631.85 326.60 C 622.85 350.02 609.04 371.54 591.71 389.66 C 565.81 416.99 532.70 436.84 497.37 449.43 C 451.63 465.57 401.76 470.06 353.92 461.89 C 314.74 455.21 276.68 439.52 245.85 414.16 C 221.01 393.84 201.56 366.88 190.62 336.67 L 190.70 335.60 C 197.25 334.69 203.96 332.53 208.57 327.54 C 219.01 316.49 216.87 295.36 202.95 288.11 C 196.50 284.63 188.91 284.08 181.74 284.72 C 182.02 275.18 183.21 265.65 185.65 256.41 C 191.99 231.51 207.36 209.38 227.50 193.61 C 255.01 171.87 290.10 160.94 324.93 160.02 C 354.83 159.40 385.29 166.31 410.83 182.20 C 430.70 194.59 447.56 212.52 456.66 234.28 C 461.52 246.27 462.28 259.35 463.40 272.10 C 463.96 275.79 464.04 279.53 463.86 283.26 C 463.53 283.55 462.89 284.13 462.56 284.42 C 454.21 284.51 445.73 286.36 438.70 291.05 C 438.62 295.49 438.62 299.93 438.69 304.37 C 444.27 299.40 451.09 295.47 458.77 295.40 L 458.49 296.79 C 455.21 301.84 451.11 306.36 446.22 309.89 C 444.28 310.90 442.48 312.11 440.68 313.32 C 437.06 315.51 433.07 316.95 429.06 318.22 C 428.57 318.30 427.57 318.47 427.08 318.55 C 426.95 301.51 427.31 284.47 426.90 267.43 C 421.11 267.54 415.33 267.42 409.55 267.55 C 409.56 285.16 409.53 302.78 409.56 320.39 C 392.76 319.43 375.74 310.98 367.12 296.14 C 366.36 294.27 365.43 292.49 364.52 290.70 C 360.12 282.32 363.51 272.31 359.17 263.94 C 355.44 255.45 346.90 249.91 337.96 248.32 C 322.45 245.54 305.40 249.89 293.92 260.89 C 286.72 267.69 282.77 277.61 282.90 287.48 C 280.04 289.21 277.61 291.51 275.28 293.87 C 272.32 287.72 265.72 284.11 258.95 284.48 C 252.27 284.12 246.31 287.63 241.64 292.10 C 241.64 289.84 241.57 287.60 241.58 285.36 C 235.77 285.32 229.97 285.35 224.16 285.33 C 224.09 301.80 224.11 318.26 224.15 334.73 C 229.96 334.74 235.78 334.76 241.60 334.71 C 241.74 325.12 241.34 315.50 241.76 305.93 C 244.10 301.24 249.09 296.53 254.76 298.35 C 259.12 299.79 259.30 305.19 259.39 309.01 C 259.40 317.58 259.37 326.14 259.39 334.71 C 265.20 334.76 271.02 334.73 276.83 334.74 C 276.90 326.14 276.86 317.55 276.83 308.96 C 276.23 304.20 280.58 301.12 283.74 298.36 C 285.91 307.79 289.68 316.78 294.67 325.06 C 294.63 328.27 294.63 331.49 294.65 334.70 C 296.85 334.70 299.06 334.73 301.28 334.70 C 318.69 357.55 346.01 371.20 373.91 376.12 C 400.24 380.70 427.63 378.30 452.99 370.03 C 481.25 360.82 507.69 343.85 524.86 319.23 C 525.35 324.38 525.15 329.56 525.20 334.73 C 531.02 334.74 536.83 334.76 542.65 334.71 C 542.66 329.13 542.68 323.54 542.62 317.96 C 542.25 312.19 544.93 305.89 549.92 302.78 C 554.11 300.38 558.84 302.59 562.30 305.23 C 564.53 299.53 566.56 293.75 568.70 288.01 C 564.67 285.50 559.85 283.55 555.05 284.85 C 549.24 286.16 545.92 291.55 542.77 296.10 C 542.66 292.52 542.62 288.94 542.65 285.36 C 541.94 285.36 540.51 285.35 539.80 285.34 C 544.03 266.84 543.02 247.36 537.84 229.16 C 529.41 199.47 511.35 173.00 488.39 152.59 C 466.35 132.89 439.17 119.64 410.93 111.43 C 371.25 100.03 328.90 99.01 288.41 106.61 C 249.30 114.04 211.47 129.61 179.57 153.59 C 152.90 173.55 130.81 200.07 117.91 230.91 C 105.91 259.17 102.07 290.65 106.07 321.04 C 110.68 356.26 125.27 389.99 147.17 417.90 C 173.89 452.09 210.08 478.13 249.52 495.75 C 291.68 514.67 337.93 523.76 384.05 524.12 C 430.90 524.73 477.82 516.72 521.96 501.05 C 577.66 481.16 629.83 448.60 667.76 402.73 C 689.58 376.35 706.06 345.37 714.44 312.11 C 726.21 266.81 723.70 218.27 709.02 173.94 C 687.41 107.96 640.61 51.76 582.63 14.29 C 574.52 9.35 566.61 3.90 557.95 0.00 M 572.59 294.45 C 566.93 302.43 566.52 313.56 570.74 322.26 C 574.29 329.62 582.12 334.11 590.03 335.16 C 600.01 336.39 610.58 335.15 619.45 330.19 C 619.36 326.68 619.40 323.16 619.36 319.65 C 612.64 322.44 605.49 324.98 598.10 324.36 C 592.49 323.84 587.20 319.86 585.86 314.27 C 597.48 314.08 609.14 314.60 620.75 314.01 C 620.74 307.13 620.30 299.71 616.00 294.00 C 611.23 286.94 602.24 284.03 594.03 284.52 C 585.98 284.77 577.50 287.78 572.59 294.45 Z" />
<path fill="#d6d6d6" opacity="1.00" d=" M 587.64 298.64 C 591.06 294.19 598.98 293.90 602.29 298.61 C 603.76 300.57 603.98 303.08 604.41 305.41 C 598.04 305.87 591.64 305.53 585.27 305.58 C 585.63 303.16 585.97 300.56 587.64 298.64 Z" />
<path fill="#d6d6d6" opacity="1.00" d=" M 182.19 298.31 C 186.21 296.90 191.52 297.10 194.18 300.90 C 197.32 305.62 197.34 312.04 195.29 317.20 C 193.91 320.86 190.06 322.75 186.30 322.64 C 184.36 314.72 182.87 306.69 182.22 298.56 L 182.19 298.31 Z" />
<path fill="#d6d6d6" opacity="1.00" d=" M 798.36 434.92 C 798.86 432.51 796.45 427.81 799.99 427.29 L 800.00 426.47 L 800.00 438.66 C 799.46 437.40 798.88 436.18 798.36 434.92 Z" />
<path fill="#d6d6d6" opacity="1.00" d=" M 0.00 548.69 C 18.19 567.52 38.00 584.82 59.34 600.00 L 0.00 600.00 L 0.00 548.69 Z" />
<path fill="#d6d6d6" opacity="1.00" d=" M 798.27 555.05 C 798.70 554.68 799.57 553.93 800.00 553.55 L 800.00 570.97 C 788.46 581.09 776.66 590.95 764.26 600.00 L 738.32 600.00 C 759.31 586.44 779.39 571.43 798.27 555.05 Z" />
</g>
<g id="#333333ff">
<path fill="#333333" opacity="1.00" d=" M 117.97 0.00 L 118.86 0.00 C 120.47 0.74 122.10 1.60 123.93 1.50 C 140.91 1.69 157.90 1.20 174.87 1.80 C 174.66 1.35 174.24 0.45 174.03 0.00 L 557.95 0.00 C 566.61 3.90 574.52 9.35 582.63 14.29 C 640.61 51.76 687.41 107.96 709.02 173.94 C 723.70 218.27 726.21 266.81 714.44 312.11 C 706.06 345.37 689.58 376.35 667.76 402.73 C 629.83 448.60 577.66 481.16 521.96 501.05 C 477.82 516.72 430.90 524.73 384.05 524.12 C 337.93 523.76 291.68 514.67 249.52 495.75 C 210.08 478.13 173.89 452.09 147.17 417.90 C 125.27 389.99 110.68 356.26 106.07 321.04 C 102.07 290.65 105.91 259.17 117.91 230.91 C 130.81 200.07 152.90 173.55 179.57 153.59 C 211.47 129.61 249.30 114.04 288.41 106.61 C 328.90 99.01 371.25 100.03 410.93 111.43 C 439.17 119.64 466.35 132.89 488.39 152.59 C 511.35 173.00 529.41 199.47 537.84 229.16 C 543.02 247.36 544.03 266.84 539.80 285.34 C 534.94 285.33 530.07 285.37 525.22 285.35 C 524.95 296.64 525.63 307.96 524.86 319.23 C 507.69 343.85 481.25 360.82 452.99 370.03 C 427.63 378.30 400.24 380.70 373.91 376.12 C 346.01 371.20 318.69 357.55 301.28 334.70 C 304.85 334.66 308.43 334.69 312.01 334.74 C 312.20 324.53 312.10 314.30 312.08 304.09 C 312.06 297.88 310.40 290.79 304.82 287.23 C 298.22 283.17 289.54 283.87 282.90 287.48 C 282.77 277.61 286.72 267.69 293.92 260.89 C 305.40 249.89 322.45 245.54 337.96 248.32 C 346.90 249.91 355.44 255.45 359.17 263.94 C 363.51 272.31 360.12 282.32 364.52 290.70 C 361.30 288.78 358.36 286.17 354.56 285.48 C 343.59 283.16 331.52 284.88 322.08 291.11 C 322.06 295.55 322.05 299.99 322.05 304.43 C 328.42 298.67 337.08 293.81 345.91 296.17 C 348.91 297.09 349.07 300.66 349.60 303.22 C 342.57 306.19 334.94 307.62 328.14 311.18 C 324.68 313.03 321.51 316.05 320.75 320.05 C 319.46 325.41 321.74 331.79 327.04 334.03 C 334.62 337.12 343.66 335.62 350.15 330.70 C 351.54 332.36 352.67 334.65 354.98 335.13 C 361.30 336.57 367.69 334.54 373.59 332.38 C 373.71 329.36 373.75 326.35 373.75 323.34 C 371.46 323.96 367.27 325.86 367.11 321.99 C 366.67 313.39 366.74 304.74 367.12 296.14 C 375.74 310.98 392.76 319.43 409.56 320.39 C 409.58 325.15 409.55 329.92 409.56 334.68 C 415.37 334.75 421.18 334.71 427.00 334.72 C 427.11 329.49 427.08 324.26 426.97 319.03 C 427.49 318.83 428.54 318.42 429.06 318.22 C 433.07 316.95 437.06 315.51 440.68 313.32 C 439.35 316.13 437.13 318.70 437.07 321.96 C 436.53 326.90 439.10 332.18 443.82 334.12 C 451.39 337.08 460.30 335.58 466.75 330.70 C 468.23 332.45 469.47 334.93 472.01 335.24 C 478.27 336.40 484.62 334.63 490.34 332.14 C 490.31 329.23 490.31 326.33 490.34 323.42 C 488.20 323.88 484.02 325.86 483.76 322.22 C 482.96 314.21 483.90 306.13 483.32 298.11 C 483.01 293.13 479.51 288.79 475.03 286.83 C 471.58 285.07 467.65 285.01 463.90 284.64 C 463.89 284.30 463.87 283.60 463.86 283.26 C 464.04 279.53 463.96 275.79 463.40 272.10 C 462.28 259.35 461.52 246.27 456.66 234.28 C 447.56 212.52 430.70 194.59 410.83 182.20 C 385.29 166.31 354.83 159.40 324.93 160.02 C 290.10 160.94 255.01 171.87 227.50 193.61 C 207.36 209.38 191.99 231.51 185.65 256.41 C 183.21 265.65 182.02 275.18 181.74 284.72 C 175.67 285.49 169.56 287.71 165.24 292.18 C 156.82 300.73 156.41 315.33 162.89 325.11 C 168.74 333.49 179.72 336.26 189.45 335.46 C 189.74 335.77 190.33 336.37 190.62 336.67 C 201.56 366.88 221.01 393.84 245.85 414.16 C 276.68 439.52 314.74 455.21 353.92 461.89 C 401.76 470.06 451.63 465.57 497.37 449.43 C 532.70 436.84 565.81 416.99 591.71 389.66 C 609.04 371.54 622.85 350.02 631.85 326.60 C 638.90 336.66 654.67 338.72 663.89 330.46 C 663.95 331.89 664.02 333.31 664.10 334.75 C 669.85 334.71 675.59 334.69 681.34 334.76 C 681.59 312.35 681.41 289.94 681.43 267.53 C 675.61 267.49 669.80 267.48 663.98 267.53 C 663.94 274.38 663.95 281.23 663.99 288.07 C 657.57 284.03 649.63 283.70 642.46 285.68 C 642.54 284.74 642.70 282.86 642.78 281.92 C 647.72 239.46 637.77 195.95 617.35 158.60 C 597.81 123.13 568.78 93.41 535.42 70.70 C 497.61 44.89 453.96 28.22 409.01 20.12 C 366.50 12.40 322.73 12.16 280.06 18.77 C 230.96 26.38 183.11 42.95 140.44 68.49 C 112.30 85.35 86.45 106.21 64.83 130.92 C 44.25 154.41 27.61 181.48 16.82 210.83 C 3.04 248.01 -1.21 288.54 3.70 327.84 C 8.70 367.89 22.60 406.79 43.97 441.02 C 66.59 477.27 97.04 508.33 131.60 533.32 C 176.20 565.71 227.84 587.75 281.46 600.00 L 59.34 600.00 C 38.00 584.82 18.19 567.52 0.00 548.69 L 0.00 83.36 C 34.02 48.95 74.45 21.04 117.97 0.00 M 131.23 272.24 C 124.00 279.67 116.70 287.03 109.46 294.45 C 109.54 295.46 109.61 296.47 109.67 297.49 C 112.25 297.43 114.83 297.46 117.41 297.57 C 117.45 305.08 117.19 312.59 117.53 320.10 C 117.84 325.72 120.81 331.51 126.22 333.74 C 134.82 337.27 144.53 335.26 152.86 331.93 C 152.79 327.39 153.12 322.85 152.66 318.33 C 148.40 320.43 143.58 322.64 138.74 321.33 C 136.37 320.77 134.92 318.42 135.01 316.07 C 134.81 309.85 134.73 303.61 135.08 297.41 C 140.53 297.53 145.98 297.42 151.43 297.51 C 151.69 293.47 151.55 289.42 151.56 285.37 C 146.01 285.32 140.45 285.39 134.90 285.33 C 134.80 280.47 135.00 275.60 134.83 270.74 C 133.37 269.81 132.18 271.36 131.23 272.24 Z" />
<path fill="#333333" opacity="1.00" d=" M 706.39 0.00 L 709.49 0.00 C 711.58 0.73 713.70 1.59 715.97 1.52 C 743.39 1.54 770.81 1.48 798.23 1.54 C 798.27 38.37 798.23 75.19 798.25 112.02 C 798.17 115.57 799.07 119.01 800.00 122.40 L 800.00 129.55 C 779.59 79.73 746.43 35.75 706.39 0.00 Z" />
<path fill="#333333" opacity="1.00" d=" M 458.49 296.79 C 458.81 296.40 459.46 295.61 459.79 295.21 C 461.54 295.99 463.92 296.18 464.87 298.12 C 465.85 300.05 467.18 303.75 463.93 304.16 C 457.99 305.96 452.28 308.53 446.22 309.89 C 451.11 306.36 455.21 301.84 458.49 296.79 Z" />
<path fill="#333333" opacity="1.00" d=" M 650.99 298.06 C 655.25 295.57 660.14 297.87 663.95 300.10 C 663.99 306.41 663.93 312.71 663.99 319.02 C 661.45 321.05 658.44 322.78 655.07 322.50 C 650.35 322.53 646.33 318.50 645.84 313.91 C 644.93 308.33 645.73 301.28 650.99 298.06 Z" />
<path fill="#333333" opacity="1.00" d=" M 283.74 298.36 C 286.57 297.76 290.03 297.47 292.24 299.73 C 294.51 302.22 294.58 305.83 294.66 309.01 C 294.62 314.36 295.05 319.71 294.67 325.06 C 289.68 316.78 285.91 307.79 283.74 298.36 Z" />
<path fill="#333333" opacity="1.00" d=" M 177.09 313.14 C 176.42 307.99 177.01 301.18 182.22 298.56 C 182.87 306.69 184.36 314.72 186.30 322.64 C 181.11 322.68 177.50 317.96 177.09 313.14 Z" />
<path fill="#333333" opacity="1.00" d=" M 456.21 316.26 C 459.07 313.89 462.61 312.59 465.97 311.09 C 466.04 315.02 466.03 318.95 465.99 322.89 C 463.37 324.60 460.35 327.12 457.02 325.84 C 453.15 324.35 453.31 318.63 456.21 316.26 Z" />
<path fill="#333333" opacity="1.00" d=" M 339.45 316.41 C 342.33 313.95 345.92 312.52 349.43 311.21 C 349.43 315.13 349.45 319.04 349.36 322.96 C 346.67 324.65 343.51 327.27 340.15 325.73 C 336.61 324.10 336.78 318.77 339.45 316.41 Z" />
<path fill="#333333" opacity="1.00" d=" M 798.31 375.58 C 801.54 378.13 797.67 382.14 800.00 385.19 L 800.00 426.47 L 799.99 427.29 C 796.45 427.81 798.86 432.51 798.36 434.92 C 798.11 474.96 798.29 515.01 798.27 555.05 C 779.39 571.43 759.31 586.44 738.32 600.00 L 500.34 600.00 C 513.96 596.68 527.58 593.34 540.95 589.12 C 615.52 566.06 685.64 525.46 738.39 467.42 C 763.16 440.30 783.34 409.11 798.31 375.58 Z" />
<path fill="#333333" opacity="1.00" d=" M 764.26 600.00 C 776.66 590.95 788.46 581.09 800.00 570.97 L 800.00 574.37 C 799.10 575.74 798.08 577.16 798.28 578.91 C 798.15 585.94 798.30 592.97 798.24 600.00 L 764.26 600.00 Z" />
</g>
<g id="#748692ff">
<path fill="#748692" opacity="1.00" d=" M 118.86 0.00 L 174.03 0.00 C 174.24 0.45 174.66 1.35 174.87 1.80 C 157.90 1.20 140.91 1.69 123.93 1.50 C 122.10 1.60 120.47 0.74 118.86 0.00 Z" />
<path fill="#748692" opacity="1.00" d=" M 709.49 0.00 L 800.00 0.00 L 800.00 122.40 C 799.07 119.01 798.17 115.57 798.25 112.02 C 798.23 75.19 798.27 38.37 798.23 1.54 C 770.81 1.48 743.39 1.54 715.97 1.52 C 713.70 1.59 711.58 0.73 709.49 0.00 Z" />
<path fill="#748692" opacity="1.00" d=" M 409.55 267.55 C 415.33 267.42 421.11 267.54 426.90 267.43 C 427.31 284.47 426.95 301.51 427.08 318.55 C 427.57 318.47 428.57 318.30 429.06 318.22 C 428.54 318.42 427.49 318.83 426.97 319.03 C 427.08 324.26 427.11 329.49 427.00 334.72 C 421.18 334.71 415.37 334.75 409.56 334.68 C 409.55 329.92 409.58 325.15 409.56 320.39 C 409.53 302.78 409.56 285.16 409.55 267.55 Z" />
<path fill="#748692" opacity="1.00" d=" M 663.98 267.53 C 669.80 267.48 675.61 267.49 681.43 267.53 C 681.41 289.94 681.59 312.35 681.34 334.76 C 675.59 334.69 669.85 334.71 664.10 334.75 C 664.02 333.31 663.95 331.89 663.89 330.46 C 654.67 338.72 638.90 336.66 631.85 326.60 C 626.32 319.07 626.09 308.74 628.79 300.09 C 630.71 293.58 635.78 288.45 641.93 285.75 C 642.21 284.47 642.54 283.21 642.78 281.92 C 642.70 282.86 642.54 284.74 642.46 285.68 C 649.63 283.70 657.57 284.03 663.99 288.07 C 663.95 281.23 663.94 274.38 663.98 267.53 M 650.99 298.06 C 645.73 301.28 644.93 308.33 645.84 313.91 C 646.33 318.50 650.35 322.53 655.07 322.50 C 658.44 322.78 661.45 321.05 663.99 319.02 C 663.93 312.71 663.99 306.41 663.95 300.10 C 660.14 297.87 655.25 295.57 650.99 298.06 Z" />
<path fill="#748692" opacity="1.00" d=" M 131.23 272.24 C 132.18 271.36 133.37 269.81 134.83 270.74 C 135.00 275.60 134.80 280.47 134.90 285.33 C 140.45 285.39 146.01 285.32 151.56 285.37 C 151.55 289.42 151.69 293.47 151.43 297.51 C 145.98 297.42 140.53 297.53 135.08 297.41 C 134.73 303.61 134.81 309.85 135.01 316.07 C 134.92 318.42 136.37 320.77 138.74 321.33 C 143.58 322.64 148.40 320.43 152.66 318.33 C 153.12 322.85 152.79 327.39 152.86 331.93 C 144.53 335.26 134.82 337.27 126.22 333.74 C 120.81 331.51 117.84 325.72 117.53 320.10 C 117.19 312.59 117.45 305.08 117.41 297.57 C 114.83 297.46 112.25 297.43 109.67 297.49 C 109.61 296.47 109.54 295.46 109.46 294.45 C 116.70 287.03 124.00 279.67 131.23 272.24 Z" />
<path fill="#748692" opacity="1.00" d=" M 462.56 284.42 C 462.89 284.13 463.53 283.55 463.86 283.26 C 463.87 283.60 463.89 284.30 463.90 284.64 C 467.65 285.01 471.58 285.07 475.03 286.83 C 479.51 288.79 483.01 293.13 483.32 298.11 C 483.90 306.13 482.96 314.21 483.76 322.22 C 484.02 325.86 488.20 323.88 490.34 323.42 C 490.31 326.33 490.31 329.23 490.34 332.14 C 484.62 334.63 478.27 336.40 472.01 335.24 C 469.47 334.93 468.23 332.45 466.75 330.70 C 460.30 335.58 451.39 337.08 443.82 334.12 C 439.10 332.18 436.53 326.90 437.07 321.96 C 437.13 318.70 439.35 316.13 440.68 313.32 C 442.48 312.11 444.28 310.90 446.22 309.89 C 452.28 308.53 457.99 305.96 463.93 304.16 C 467.18 303.75 465.85 300.05 464.87 298.12 C 463.92 296.18 461.54 295.99 459.79 295.21 C 459.46 295.61 458.81 296.40 458.49 296.79 L 458.77 295.40 C 451.09 295.47 444.27 299.40 438.69 304.37 C 438.62 299.93 438.62 295.49 438.70 291.05 C 445.73 286.36 454.21 284.51 462.56 284.42 M 456.21 316.26 C 453.31 318.63 453.15 324.35 457.02 325.84 C 460.35 327.12 463.37 324.60 465.99 322.89 C 466.03 318.95 466.04 315.02 465.97 311.09 C 462.61 312.59 459.07 313.89 456.21 316.26 Z" />
<path fill="#748692" opacity="1.00" d=" M 165.24 292.18 C 169.56 287.71 175.67 285.49 181.74 284.72 C 188.91 284.08 196.50 284.63 202.95 288.11 C 216.87 295.36 219.01 316.49 208.57 327.54 C 203.96 332.53 197.25 334.69 190.70 335.60 L 190.62 336.67 C 190.33 336.37 189.74 335.77 189.45 335.46 C 179.72 336.26 168.74 333.49 162.89 325.11 C 156.41 315.33 156.82 300.73 165.24 292.18 M 182.19 298.31 L 182.22 298.56 C 177.01 301.18 176.42 307.99 177.09 313.14 C 177.50 317.96 181.11 322.68 186.30 322.64 C 190.06 322.75 193.91 320.86 195.29 317.20 C 197.34 312.04 197.32 305.62 194.18 300.90 C 191.52 297.10 186.21 296.90 182.19 298.31 Z" />
<path fill="#748692" opacity="1.00" d=" M 224.16 285.33 C 229.97 285.35 235.77 285.32 241.58 285.36 C 241.57 287.60 241.64 289.84 241.64 292.10 C 246.31 287.63 252.27 284.12 258.95 284.48 C 265.72 284.11 272.32 287.72 275.28 293.87 C 277.61 291.51 280.04 289.21 282.90 287.48 C 289.54 283.87 298.22 283.17 304.82 287.23 C 310.40 290.79 312.06 297.88 312.08 304.09 C 312.10 314.30 312.20 324.53 312.01 334.74 C 308.43 334.69 304.85 334.66 301.28 334.70 C 299.06 334.73 296.85 334.70 294.65 334.70 C 294.63 331.49 294.63 328.27 294.67 325.06 C 295.05 319.71 294.62 314.36 294.66 309.01 C 294.58 305.83 294.51 302.22 292.24 299.73 C 290.03 297.47 286.57 297.76 283.74 298.36 C 280.58 301.12 276.23 304.20 276.83 308.96 C 276.86 317.55 276.90 326.14 276.83 334.74 C 271.02 334.73 265.20 334.76 259.39 334.71 C 259.37 326.14 259.40 317.58 259.39 309.01 C 259.30 305.19 259.12 299.79 254.76 298.35 C 249.09 296.53 244.10 301.24 241.76 305.93 C 241.34 315.50 241.74 325.12 241.60 334.71 C 235.78 334.76 229.96 334.74 224.15 334.73 C 224.11 318.26 224.09 301.80 224.16 285.33 Z" />
<path fill="#748692" opacity="1.00" d=" M 322.08 291.11 C 331.52 284.88 343.59 283.16 354.56 285.48 C 358.36 286.17 361.30 288.78 364.52 290.70 C 365.43 292.49 366.36 294.27 367.12 296.14 C 366.74 304.74 366.67 313.39 367.11 321.99 C 367.27 325.86 371.46 323.96 373.75 323.34 C 373.75 326.35 373.71 329.36 373.59 332.38 C 367.69 334.54 361.30 336.57 354.98 335.13 C 352.67 334.65 351.54 332.36 350.15 330.70 C 343.66 335.62 334.62 337.12 327.04 334.03 C 321.74 331.79 319.46 325.41 320.75 320.05 C 321.51 316.05 324.68 313.03 328.14 311.18 C 334.94 307.62 342.57 306.19 349.60 303.22 C 349.07 300.66 348.91 297.09 345.91 296.17 C 337.08 293.81 328.42 298.67 322.05 304.43 C 322.05 299.99 322.06 295.55 322.08 291.11 M 339.45 316.41 C 336.78 318.77 336.61 324.10 340.15 325.73 C 343.51 327.27 346.67 324.65 349.36 322.96 C 349.45 319.04 349.43 315.13 349.43 311.21 C 345.92 312.52 342.33 313.95 339.45 316.41 Z" />
<path fill="#748692" opacity="1.00" d=" M 525.22 285.35 C 530.07 285.37 534.94 285.33 539.80 285.34 C 540.51 285.35 541.94 285.36 542.65 285.36 C 542.62 288.94 542.66 292.52 542.77 296.10 C 545.92 291.55 549.24 286.16 555.05 284.85 C 559.85 283.55 564.67 285.50 568.70 288.01 C 566.56 293.75 564.53 299.53 562.30 305.23 C 558.84 302.59 554.11 300.38 549.92 302.78 C 544.93 305.89 542.25 312.19 542.62 317.96 C 542.68 323.54 542.66 329.13 542.65 334.71 C 536.83 334.76 531.02 334.74 525.20 334.73 C 525.15 329.56 525.35 324.38 524.86 319.23 C 525.63 307.96 524.95 296.64 525.22 285.35 Z" />
<path fill="#748692" opacity="1.00" d=" M 572.59 294.45 C 577.50 287.78 585.98 284.77 594.03 284.52 C 602.24 284.03 611.23 286.94 616.00 294.00 C 620.30 299.71 620.74 307.13 620.75 314.01 C 609.14 314.60 597.48 314.08 585.86 314.27 C 587.20 319.86 592.49 323.84 598.10 324.36 C 605.49 324.98 612.64 322.44 619.36 319.65 C 619.40 323.16 619.36 326.68 619.45 330.19 C 610.58 335.15 600.01 336.39 590.03 335.16 C 582.12 334.11 574.29 329.62 570.74 322.26 C 566.52 313.56 566.93 302.43 572.59 294.45 M 587.64 298.64 C 585.97 300.56 585.63 303.16 585.27 305.58 C 591.64 305.53 598.04 305.87 604.41 305.41 C 603.98 303.08 603.76 300.57 602.29 298.61 C 598.98 293.90 591.06 294.19 587.64 298.64 Z" />
<path fill="#748692" opacity="1.00" d=" M 798.02 373.85 C 798.51 373.22 799.50 371.96 800.00 371.34 L 800.00 385.19 C 797.67 382.14 801.54 378.13 798.31 375.58 C 798.24 375.15 798.09 374.28 798.02 373.85 Z" />
<path fill="#748692" opacity="1.00" d=" M 798.36 434.92 C 798.88 436.18 799.46 437.40 800.00 438.66 L 800.00 553.55 C 799.57 553.93 798.70 554.68 798.27 555.05 C 798.29 515.01 798.11 474.96 798.36 434.92 Z" />
<path fill="#748692" opacity="1.00" d=" M 798.28 578.91 C 798.08 577.16 799.10 575.74 800.00 574.37 L 800.00 600.00 L 798.24 600.00 C 798.30 592.97 798.15 585.94 798.28 578.91 Z" />
</g>
</svg>
